<svg width="127" height="52" viewBox="0 0 127 52" fill="none" xmlns="http://www.w3.org/2000/svg">
<path d="M26.2056 0.72168H27.6412V8.58301H27.0601C24.4625 8.58301 22.1496 8.97038 20.1216 9.74512C18.0936 10.5199 16.3733 11.625 14.9605 13.0605C13.5705 14.4733 12.4996 16.1823 11.7476 18.1875C11.0185 20.1927 10.6539 22.4372 10.6539 24.9209V33.1924C10.6539 34.9697 10.8248 36.542 11.1666 37.9092C11.5311 39.2536 12.0438 40.3815 12.7047 41.293C13.3882 42.1816 14.1858 42.8538 15.0972 43.3096C16.0087 43.7425 17.0341 43.959 18.1734 43.959C19.2444 43.959 20.2128 43.7311 21.0787 43.2754C21.9673 42.8197 22.7193 42.1816 23.3345 41.3613C23.9726 40.5182 24.4511 39.5384 24.7701 38.4219C25.1119 37.2826 25.2828 36.0407 25.2828 34.6963C25.2828 33.3519 25.1119 32.11 24.7701 30.9707C24.4511 29.8314 23.9726 28.8516 23.3345 28.0312C22.6965 27.1882 21.9218 26.5387 21.0103 26.083C20.0989 25.6273 19.0735 25.3994 17.9341 25.3994C16.3847 25.3994 15.0175 25.764 13.8326 26.4932C12.6705 27.1995 11.759 28.111 11.0982 29.2275C10.4374 30.3441 10.0842 31.5176 10.0386 32.748L7.065 30.834C7.13336 29.0794 7.49795 27.416 8.15875 25.8438C8.84235 24.2715 9.77659 22.8815 10.9615 21.6738C12.1692 20.4434 13.6161 19.4863 15.3023 18.8027C16.9885 18.0964 18.8912 17.7432 21.0103 17.7432C23.3345 17.7432 25.3739 18.1875 27.1285 19.0762C28.9058 19.9648 30.3869 21.1839 31.5718 22.7334C32.7567 24.2829 33.6454 26.0716 34.2379 28.0996C34.8303 30.1276 35.1265 32.2923 35.1265 34.5938C35.1265 37.0091 34.7278 39.2536 33.9302 41.3271C33.1555 43.4007 32.0276 45.2122 30.5464 46.7617C29.0881 48.3112 27.3336 49.5189 25.2828 50.3848C23.232 51.2507 20.9306 51.6836 18.3785 51.6836C15.7352 51.6836 13.3313 51.2051 11.1666 50.248C9.02464 49.2682 7.17893 47.901 5.62946 46.1465C4.07998 44.3919 2.88369 42.307 2.04059 39.8916C1.22028 37.4762 0.81012 34.833 0.81012 31.9619V28.1338C0.81012 24.1234 1.39117 20.4548 2.55328 17.1279C3.73818 13.7783 5.43577 10.8844 7.64606 8.44629C9.85634 5.98535 12.5224 4.08268 15.6441 2.73828C18.7658 1.39388 22.2864 0.72168 26.2056 0.72168ZM74.5015 21.7422V30.3555C74.5015 34.0924 74.1028 37.3167 73.3052 40.0283C72.5077 42.7171 71.357 44.9274 69.8531 46.6592C68.372 48.3682 66.606 49.6328 64.5552 50.4531C62.5045 51.2734 60.2258 51.6836 57.7193 51.6836C55.7141 51.6836 53.8456 51.4329 52.1138 50.9316C50.3821 50.4076 48.8212 49.5986 47.4312 48.5049C46.064 47.4111 44.8791 46.0326 43.8765 44.3691C42.8967 42.6829 42.1448 40.6777 41.6207 38.3535C41.0966 36.0293 40.8345 33.3633 40.8345 30.3555V21.7422C40.8345 18.0052 41.2333 14.8037 42.0308 12.1377C42.8511 9.44889 44.0019 7.25 45.483 5.54102C46.9869 3.83203 48.7642 2.57878 50.815 1.78125C52.8658 0.960938 55.1444 0.550781 57.6509 0.550781C59.6561 0.550781 61.5132 0.812826 63.2222 1.33691C64.954 1.83822 66.5149 2.62435 67.9048 3.69531C69.2948 4.76628 70.4797 6.14486 71.4595 7.83105C72.4394 9.49447 73.1913 11.4883 73.7154 13.8125C74.2395 16.1139 74.5015 18.7572 74.5015 21.7422ZM64.6236 31.6543V20.4092C64.6236 18.609 64.5211 17.0368 64.316 15.6924C64.1337 14.348 63.8489 13.2087 63.4615 12.2744C63.0741 11.3174 62.5956 10.5426 62.0259 9.9502C61.4563 9.35775 60.8069 8.9248 60.0777 8.65137C59.3485 8.37793 58.5396 8.24121 57.6509 8.24121C56.5344 8.24121 55.5432 8.45768 54.6773 8.89062C53.8342 9.32357 53.1164 10.0186 52.524 10.9756C51.9315 11.9098 51.4758 13.1631 51.1568 14.7354C50.8606 16.2848 50.7125 18.1761 50.7125 20.4092V31.6543C50.7125 33.4544 50.8036 35.0381 50.9859 36.4053C51.191 37.7725 51.4872 38.946 51.8746 39.9258C52.2847 40.8828 52.7632 41.6689 53.3101 42.2842C53.8798 42.8766 54.5292 43.3096 55.2584 43.583C56.0103 43.8564 56.8306 43.9932 57.7193 43.9932C58.813 43.9932 59.7815 43.7767 60.6246 43.3438C61.4905 42.888 62.2196 42.1816 62.8121 41.2246C63.4273 40.2448 63.883 38.9688 64.1793 37.3965C64.4755 35.8242 64.6236 33.9102 64.6236 31.6543ZM81.064 13.4365V10.8047C81.064 8.91341 81.4742 7.19303 82.2945 5.64355C83.1148 4.09408 84.3225 2.85221 85.9175 1.91797C87.5126 0.983724 89.4722 0.516602 91.7964 0.516602C94.189 0.516602 96.1828 0.983724 97.7779 1.91797C99.3957 2.85221 100.603 4.09408 101.401 5.64355C102.221 7.19303 102.631 8.91341 102.631 10.8047V13.4365C102.631 15.2822 102.221 16.9798 101.401 18.5293C100.603 20.0788 99.4071 21.3206 97.8121 22.2549C96.217 23.1891 94.246 23.6562 91.899 23.6562C89.5292 23.6562 87.5354 23.1891 85.9175 22.2549C84.3225 21.3206 83.1148 20.0788 82.2945 18.5293C81.4742 16.9798 81.064 15.2822 81.064 13.4365ZM87.5923 10.8047V13.4365C87.5923 14.234 87.7405 14.9974 88.0367 15.7266C88.3557 16.4329 88.8342 17.014 89.4722 17.4697C90.133 17.9027 90.9306 18.1191 91.8648 18.1191C92.8446 18.1191 93.6422 17.9027 94.2574 17.4697C94.8726 17.014 95.3283 16.4329 95.6246 15.7266C95.9208 14.9974 96.0689 14.234 96.0689 13.4365V10.8047C96.0689 9.96159 95.9094 9.18685 95.5904 8.48047C95.2942 7.7513 94.827 7.17025 94.189 6.7373C93.5738 6.28158 92.7763 6.05371 91.7964 6.05371C90.885 6.05371 90.1102 6.28158 89.4722 6.7373C88.8342 7.17025 88.3557 7.7513 88.0367 8.48047C87.7405 9.18685 87.5923 9.96159 87.5923 10.8047ZM104.853 41.4297V38.7979C104.853 36.9294 105.263 35.2204 106.084 33.6709C106.927 32.1214 108.146 30.8796 109.741 29.9453C111.359 29.0111 113.341 28.5439 115.688 28.5439C118.058 28.5439 120.04 29.0111 121.635 29.9453C123.23 30.8796 124.438 32.1214 125.258 33.6709C126.079 35.2204 126.489 36.9294 126.489 38.7979V41.4297C126.489 43.2982 126.079 45.0072 125.258 46.5566C124.461 48.1061 123.265 49.348 121.669 50.2822C120.074 51.2165 118.103 51.6836 115.756 51.6836C113.387 51.6836 111.393 51.2165 109.775 50.2822C108.157 49.348 106.927 48.1061 106.084 46.5566C105.263 45.0072 104.853 43.2982 104.853 41.4297ZM111.416 38.7979V41.4297C111.416 42.25 111.598 43.0247 111.962 43.7539C112.327 44.4831 112.828 45.0641 113.466 45.4971C114.127 45.93 114.891 46.1465 115.756 46.1465C116.85 46.1465 117.705 45.93 118.32 45.4971C118.935 45.0641 119.357 44.4831 119.585 43.7539C119.835 43.0247 119.961 42.25 119.961 41.4297V38.7979C119.961 37.9775 119.801 37.2142 119.482 36.5078C119.163 35.7786 118.684 35.1976 118.046 34.7646C117.431 34.3089 116.645 34.0811 115.688 34.0811C114.731 34.0811 113.933 34.3089 113.295 34.7646C112.68 35.1976 112.213 35.7786 111.894 36.5078C111.575 37.2142 111.416 37.9775 111.416 38.7979ZM118.115 8.34375L93.813 47.2402L89.0279 44.7109L113.33 5.81445L118.115 8.34375Z" fill="#214E41"/>
</svg>
